<svg width="16" height="16" viewBox="0 0 16 16" fill="none" xmlns="http://www.w3.org/2000/svg">
<path fill-rule="evenodd" clip-rule="evenodd" d="M11.1367 4.19642C11.3964 4.45612 11.3964 4.87718 11.1367 5.13687L4.47003 11.8035C4.21033 12.0632 3.78927 12.0632 3.52957 11.8035L0.196239 8.47021C-0.0634598 8.21051 -0.0634599 7.78945 0.196239 7.52976C0.455937 7.27006 0.876992 7.27006 1.13669 7.52976L3.9998 10.3929L10.1962 4.19642C10.4559 3.93672 10.877 3.93672 11.1367 4.19642ZM15.8034 4.19642C16.0631 4.45612 16.0631 4.87718 15.8034 5.13687L9.13669 11.8035C8.87699 12.0632 8.45594 12.0632 8.19624 11.8035L7.36291 10.9702C7.10321 10.7105 7.10321 10.2895 7.36291 10.0298C7.6226 9.77006 8.04366 9.77006 8.30336 10.0298L8.66646 10.3929L14.8629 4.19642C15.1226 3.93672 15.5437 3.93672 15.8034 4.19642Z" fill="#595959"/>
</svg>
