<svg width="16" height="16" viewBox="0 0 16 16" fill="none" xmlns="http://www.w3.org/2000/svg">
<path fill-rule="evenodd" clip-rule="evenodd" d="M11.1369 4.19642C11.3966 4.45612 11.3966 4.87718 11.1369 5.13687L4.47027 11.8035C4.21057 12.0632 3.78952 12.0632 3.52982 11.8035L0.196483 8.47021C-0.0632157 8.21051 -0.0632157 7.78945 0.196483 7.52976C0.456182 7.27006 0.877236 7.27006 1.13693 7.52976L4.00004 10.3929L10.1965 4.19642C10.4562 3.93672 10.8772 3.93672 11.1369 4.19642ZM15.8036 4.19642C16.0633 4.45612 16.0633 4.87718 15.8036 5.13687L9.13694 11.8035C8.87724 12.0632 8.45618 12.0632 8.19648 11.8035L7.36315 10.9702C7.10345 10.7105 7.10345 10.2895 7.36315 10.0298C7.62285 9.77006 8.0439 9.77006 8.3036 10.0298L8.66671 10.3929L14.8631 4.19642C15.1228 3.93672 15.5439 3.93672 15.8036 4.19642Z" fill="#0066FF"/>
</svg>
