<svg width="32" height="20" viewBox="0 0 32 20" fill="none" xmlns="http://www.w3.org/2000/svg">
<rect width="32" height="20" rx="4" fill="#FFF1F0"/>
<path fill-rule="evenodd" clip-rule="evenodd" d="M14.5095 3.99088C15.1929 2.88044 16.807 2.88044 17.4903 3.99088L23.7008 14.0828C24.4183 15.2488 23.5794 16.75 22.2104 16.75H9.78951C8.42045 16.75 7.58158 15.2488 8.2991 14.0828L14.5095 3.99088ZM16.2129 4.77703C16.1152 4.61839 15.8846 4.61839 15.787 4.77703L9.57659 14.869C9.47409 15.0356 9.59392 15.25 9.78951 15.25H22.2104C22.406 15.25 22.5258 15.0356 22.4233 14.869L16.2129 4.77703ZM16.9999 13.5C16.9999 14.0523 16.5522 14.5 15.9999 14.5C15.4477 14.5 14.9999 14.0523 14.9999 13.5C14.9999 12.9477 15.4477 12.5 15.9999 12.5C16.5522 12.5 16.9999 12.9477 16.9999 13.5ZM15.2499 7.00001V12H16.7499V7.00001H15.2499Z" fill="#F5222D"/>
</svg>
