<svg width="32" height="20" viewBox="0 0 32 20" fill="none" xmlns="http://www.w3.org/2000/svg">
<rect width="32" height="20" fill="#F6FFED"/>
<path fill-rule="evenodd" clip-rule="evenodd" d="M19.1369 6.19642C19.3966 6.45612 19.3966 6.87718 19.1369 7.13687L12.4703 13.8035C12.2106 14.0632 11.7895 14.0632 11.5298 13.8035L8.19648 10.4702C7.93678 10.2105 7.93678 9.78945 8.19648 9.52976C8.45618 9.27006 8.87724 9.27006 9.13693 9.52976L12 12.3929L18.1965 6.19642C18.4562 5.93672 18.8772 5.93672 19.1369 6.19642ZM23.8036 6.19642C24.0633 6.45612 24.0633 6.87718 23.8036 7.13687L17.1369 13.8035C16.8772 14.0632 16.4562 14.0632 16.1965 13.8035L15.3632 12.9702C15.1035 12.7105 15.1035 12.2895 15.3632 12.0298C15.6228 11.7701 16.0439 11.7701 16.3036 12.0298L16.6667 12.3929L22.8631 6.19642C23.1228 5.93672 23.5439 5.93672 23.8036 6.19642Z" fill="#389E0D"/>
</svg>
