<svg width="16" height="16" viewBox="0 0 16 16" fill="none" xmlns="http://www.w3.org/2000/svg">
<path fill-rule="evenodd" clip-rule="evenodd" d="M6.50942 1.99085C7.19276 0.880412 8.80687 0.880409 9.49022 1.99085L15.7007 12.0828C16.4182 13.2488 15.5793 14.75 14.2103 14.75H1.78938C0.420323 14.75 -0.418541 13.2488 0.298981 12.0828L6.50942 1.99085ZM8.21273 2.777C8.11511 2.61836 7.88453 2.61836 7.7869 2.777L1.57647 12.869C1.47397 13.0355 1.5938 13.25 1.78938 13.25H14.2103C14.4058 13.25 14.5257 13.0355 14.4232 12.869L8.21273 2.777ZM8.99982 11.5C8.99982 12.0523 8.5521 12.5 7.99982 12.5C7.44753 12.5 6.99982 12.0523 6.99982 11.5C6.99982 10.9477 7.44753 10.5 7.99982 10.5C8.5521 10.5 8.99982 10.9477 8.99982 11.5ZM7.24982 4.99998V9.99998H8.74982V4.99998H7.24982Z" fill="#F5222D"/>
</svg>
