<svg width="32" height="20" viewBox="0 0 32 20" fill="none" xmlns="http://www.w3.org/2000/svg">
<rect width="32" height="20" rx="4" fill="#F5F5F5"/>
<path fill-rule="evenodd" clip-rule="evenodd" d="M10.75 10C10.75 7.10051 13.1005 4.75 16 4.75C18.8995 4.75 21.25 7.10051 21.25 10C21.25 12.8995 18.8995 15.25 16 15.25C13.1005 15.25 10.75 12.8995 10.75 10ZM16 3.25C12.2721 3.25 9.25 6.27208 9.25 10C9.25 13.7279 12.2721 16.75 16 16.75C19.7279 16.75 22.75 13.7279 22.75 10C22.75 6.27208 19.7279 3.25 16 3.25ZM16.75 6.66663C16.75 6.25241 16.4142 5.91663 16 5.91663C15.5858 5.91663 15.25 6.25241 15.25 6.66663V9.99996C15.25 10.1989 15.329 10.3896 15.4697 10.5303L17.4697 12.5303C17.7626 12.8232 18.2374 12.8232 18.5303 12.5303C18.8232 12.2374 18.8232 11.7625 18.5303 11.4696L16.75 9.6893V6.66663Z" fill="#8C8C8C"/>
</svg>
